<svg xmlns="http://www.w3.org/2000/svg" viewBox="0 0 24 24" fill="currentColor" aria-hidden="true"><path d="M12 .5a12 12 0 0 0-3.79 23.4c.6.11.82-.26.82-.58v-2.02c-3.34.73-4.04-1.61-4.04-1.61-.55-1.41-1.33-1.79-1.33-1.79-1.09-.75.08-.74.08-.74 1.2.08 1.83 1.23 1.83 1.23 1.07 1.83 2.8 1.3 3.49.99.11-.78.42-1.3.76-1.6-2.67-.31-5.47-1.33-5.47-5.93 0-1.31.47-2.38 1.24-3.22-.12-.3-.54-1.54.12-3.2 0 0 1.01-.32 3.31 1.23a11.5 11.5 0 0 1 6.02 0c2.3-1.55 3.31-1.23 3.31-1.23.67 1.66.25 2.9.12 3.2.77.84 1.24 1.91 1.24 3.22 0 4.61-2.8 5.61-5.47 5.91.43.37.81 1.1.81 2.22v3.29c0 .32.21.69.83.58A12 12 0 0 0 12 .5z"/></svg>
